<svg width="34" height="45" viewBox="0 0 34 45" fill="none" xmlns="http://www.w3.org/2000/svg">
<path d="M13.5 12.5C13 12 13 11.15 13 9C13 5.134 17 2 17 2C17 2 20 5.134 20 9C20 10.922 20 12 19.5 12.5" stroke="#96C745" stroke-width="4" stroke-linecap="round" stroke-linejoin="round"/>
<path d="M10 15C8.79 12.082 5.862 8.433 4 7C9.411 5.986 13.774 9.3 16 12M23 14C24.452 11.303 27.304 8.305 29 7C23.357 5.942 19.129 9.261 17 12" stroke="#96C745" stroke-width="4" stroke-linecap="round" stroke-linejoin="round"/>
<path d="M25 16L4.00002 27M9.00002 16L30 27M28 39L4.00002 25M30 25L6.00002 39M9.72502 15.374C9.1336 15.8983 8.55833 16.4406 8.00002 17C3.81002 21.19 3.10202 28.864 3.00302 32.28C2.96902 33.43 2.97702 34.602 3.41202 35.667C3.87902 36.81 4.87502 38.406 7.00002 40C11 43 23 43 27 40C29.116 38.413 30.112 36.825 30.581 35.682C31.022 34.608 31.031 33.424 30.996 32.263C30.896 28.838 30.184 21.183 26 17C25.4 16.4 24.824 15.86 24.274 15.374C20.016 11.607 13.983 11.607 9.72402 15.374H9.72502Z" stroke="#FED326" stroke-width="4" stroke-linecap="round" stroke-linejoin="round"/>
</svg>
